<svg class="svg-icon" style="width: 1em; height: 1em;vertical-align: middle;fill: currentColor;overflow: hidden;" viewBox="0 0 1024 1024" version="1.1" xmlns="http://www.w3.org/2000/svg"><path d="M512 512m-316.049383 0a316.049383 316.049383 0 1 0 632.098766 0 316.049383 316.049383 0 1 0-632.098766 0Z" fill="#E9EAEB" /><path d="M499.358025 246.518519h25.28395v530.962962h-25.28395z" fill="#2A5082" /><path d="M275.746765 633.79279l459.864494-265.430913 12.641976 21.895901-459.864494 265.430913z" fill="#2A5082" /><path d="M275.759407 390.219852l12.641976-21.895901 459.813926 265.481481-12.641976 21.895901z" fill="#2A5082" /><path d="M357.386909 642.365221a202.271605 202.271605 0 1 0 309.257215-260.797207 202.271605 202.271605 0 1 0-309.257215 260.797207Z" fill="#FFFFFF" /><path d="M512 726.91358c-118.834568 0-214.91358-96.079012-214.91358-214.91358s96.079012-214.91358 214.91358-214.91358 214.91358 96.079012 214.91358 214.91358-96.079012 214.91358-214.91358 214.91358z m0-404.54321c-104.928395 0-189.62963 84.701235-189.62963 189.62963s84.701235 189.62963 189.62963 189.62963 189.62963-84.701235 189.62963-189.62963-84.701235-189.62963-189.62963-189.62963zM329.057975 285.910914l88.898371-50.795457 12.553481 21.946469-88.911012 50.808099zM233.876543 436.148148h25.283951v151.703704h-25.283951zM329.032691 738.076444l12.553482-21.959111 88.89837 50.808099-12.540839 21.946469zM594.514173 766.305975l88.89837-50.808098 12.54084 21.959111-88.898371 50.795456zM764.839506 436.148148h25.283951v151.703704h-25.283951zM594.526815 257.706667l12.540839-21.946469 88.911013 50.795456-12.54084 21.946469z" fill="#2A5082" /><path d="M512 549.925926c-37.925926 0-113.777778 11.377778-113.777778 50.567901v25.283951c30.340741 25.283951 70.795062 41.718519 113.777778 41.718518s83.437037-15.17037 113.777778-41.718518v-25.283951c0-39.190123-75.851852-50.567901-113.777778-50.567901z" fill="#A3D4FF" /><path d="M512 499.358025c27.812346 0 50.567901-21.491358 50.567901-49.303704v-29.076543c0-26.548148-22.755556-49.303704-50.567901-49.303704s-50.567901 21.491358-50.567901 49.303704v29.076543c0 27.812346 22.755556 49.303704 50.567901 49.303704z" fill="#FFFFFF" /><path d="M512 512c-35.397531 0-63.209877-27.812346-63.209877-61.945679v-29.076543c0-34.133333 27.812346-61.945679 63.209877-61.945679s63.209877 27.812346 63.209877 61.945679v29.076543c0 34.133333-27.812346 61.945679-63.209877 61.945679z m0-126.419753c-21.491358 0-37.925926 16.434568-37.925926 36.661728v29.076544c0 20.22716 16.434568 36.661728 37.925926 36.661728s37.925926-16.434568 37.925926-36.661728v-29.076544c0-20.22716-16.434568-36.661728-37.925926-36.661728zM638.419753 625.777778h-25.283951v-25.283951c0-25.283951-58.153086-37.925926-101.135802-37.925926s-101.135802 12.641975-101.135802 37.925926v25.283951h-25.283951v-25.283951c0-50.567901 82.17284-63.209877 126.419753-63.209876s126.419753 12.641975 126.419753 63.209876v25.283951z" fill="#2A5082" /><path d="M512 195.950617m-50.567901 0a50.567901 50.567901 0 1 0 101.135802 0 50.567901 50.567901 0 1 0-101.135802 0Z" fill="#FFFFFF" /><path d="M512 259.160494c-35.397531 0-63.209877-27.812346-63.209877-63.209877s27.812346-63.209877 63.209877-63.209876 63.209877 27.812346 63.209877 63.209876-27.812346 63.209877-63.209877 63.209877z m0-101.135803c-21.491358 0-37.925926 16.434568-37.925926 37.925926s16.434568 37.925926 37.925926 37.925926 37.925926-16.434568 37.925926-37.925926-16.434568-37.925926-37.925926-37.925926z" fill="#2A5082" /><path d="M777.481481 347.654321m-50.567901 0a50.567901 50.567901 0 1 0 101.135803 0 50.567901 50.567901 0 1 0-101.135803 0Z" fill="#FFFFFF" /><path d="M777.481481 410.864198c-35.397531 0-63.209877-27.812346-63.209876-63.209877s27.812346-63.209877 63.209876-63.209877 63.209877 27.812346 63.209877 63.209877-27.812346 63.209877-63.209877 63.209877z m0-101.135803c-21.491358 0-37.925926 16.434568-37.925925 37.925926s16.434568 37.925926 37.925925 37.925926 37.925926-16.434568 37.925926-37.925926-16.434568-37.925926-37.925926-37.925926z" fill="#2A5082" /><path d="M777.481481 676.345679m-50.567901 0a50.567901 50.567901 0 1 0 101.135803 0 50.567901 50.567901 0 1 0-101.135803 0Z" fill="#FFFFFF" /><path d="M777.481481 739.555556c-35.397531 0-63.209877-27.812346-63.209876-63.209877s27.812346-63.209877 63.209876-63.209877 63.209877 27.812346 63.209877 63.209877-27.812346 63.209877-63.209877 63.209877z m0-101.135803c-21.491358 0-37.925926 16.434568-37.925925 37.925926s16.434568 37.925926 37.925925 37.925926 37.925926-16.434568 37.925926-37.925926-16.434568-37.925926-37.925926-37.925926z" fill="#2A5082" /><path d="M246.518519 676.345679m-50.567902 0a50.567901 50.567901 0 1 0 101.135803 0 50.567901 50.567901 0 1 0-101.135803 0Z" fill="#FFFFFF" /><path d="M246.518519 739.555556c-35.397531 0-63.209877-27.812346-63.209877-63.209877s27.812346-63.209877 63.209877-63.209877 63.209877 27.812346 63.209876 63.209877-27.812346 63.209877-63.209876 63.209877z m0-101.135803c-21.491358 0-37.925926 16.434568-37.925926 37.925926s16.434568 37.925926 37.925926 37.925926 37.925926-16.434568 37.925925-37.925926-16.434568-37.925926-37.925925-37.925926z" fill="#2A5082" /><path d="M246.518519 347.654321m-50.567902 0a50.567901 50.567901 0 1 0 101.135803 0 50.567901 50.567901 0 1 0-101.135803 0Z" fill="#FFFFFF" /><path d="M246.518519 410.864198c-35.397531 0-63.209877-27.812346-63.209877-63.209877s27.812346-63.209877 63.209877-63.209877 63.209877 27.812346 63.209876 63.209877-27.812346 63.209877-63.209876 63.209877z m0-101.135803c-21.491358 0-37.925926 16.434568-37.925926 37.925926s16.434568 37.925926 37.925926 37.925926 37.925926-16.434568 37.925925-37.925926-16.434568-37.925926-37.925925-37.925926z" fill="#2A5082" /><path d="M512 878.617284c-27.812346 0-50.567901-22.755556-50.567901-50.567901s22.755556-50.567901 50.567901-50.567902 50.567901 22.755556 50.567901 50.567902-22.755556 50.567901-50.567901 50.567901" fill="#FFFFFF" /><path d="M512 891.259259c-35.397531 0-63.209877-27.812346-63.209877-63.209876s27.812346-63.209877 63.209877-63.209877 63.209877 27.812346 63.209877 63.209877-27.812346 63.209877-63.209877 63.209876z m0-101.135802c-21.491358 0-37.925926 16.434568-37.925926 37.925926s16.434568 37.925926 37.925926 37.925926 37.925926-16.434568 37.925926-37.925926-16.434568-37.925926-37.925926-37.925926z" fill="#2A5082" /></svg>